<?xml version="1.0" encoding="utf-8" standalone="no"?>
<!DOCTYPE svg PUBLIC "-//W3C//DTD SVG 1.1//EN"
  "http://www.w3.org/Graphics/SVG/1.1/DTD/svg11.dtd">
<!-- Created with matplotlib (http://matplotlib.org/) -->
<svg height="345pt" version="1.1" viewBox="0 0 460 345" width="460pt" xmlns="http://www.w3.org/2000/svg" xmlns:xlink="http://www.w3.org/1999/xlink">
 <defs>
  <style type="text/css">
*{stroke-linecap:butt;stroke-linejoin:round;}
  </style>
 </defs>
 <g id="figure_1">
  <g id="patch_1">
   <path d="M 0 345.6 
L 460.8 345.6 
L 460.8 0 
L 0 0 
z
" style="fill:#ffffff;"/>
  </g>
  <g id="axes_1">
   <g id="patch_2">
    <path d="M 57.6 307.584 
L 414.72 307.584 
L 414.72 41.472 
L 57.6 41.472 
z
" style="fill:#ffffff;"/>
   </g>
   <g id="matplotlib.axis_1">
    <g id="xtick_1">
     <g id="line2d_1">
      <defs>
       <path d="M 0 0 
L 0 3.5 
" id="mcb78de7882" style="stroke:#000000;stroke-width:0.8;"/>
      </defs>
      <g>
       <use style="stroke:#000000;stroke-width:0.8;" x="98.365816" xlink:href="#mcb78de7882" y="307.584"/>
      </g>
     </g>
     <g id="text_1">
      <!-- 2017-02 -->
      <defs>
       <path d="M 19.1875 8.296875 
L 53.609375 8.296875 
L 53.609375 0 
L 7.328125 0 
L 7.328125 8.296875 
Q 12.9375 14.109375 22.625 23.890625 
Q 32.328125 33.6875 34.8125 36.53125 
Q 39.546875 41.84375 41.421875 45.53125 
Q 43.3125 49.21875 43.3125 52.78125 
Q 43.3125 58.59375 39.234375 62.25 
Q 35.15625 65.921875 28.609375 65.921875 
Q 23.96875 65.921875 18.8125 64.3125 
Q 13.671875 62.703125 7.8125 59.421875 
L 7.8125 69.390625 
Q 13.765625 71.78125 18.9375 73 
Q 24.125 74.21875 28.421875 74.21875 
Q 39.75 74.21875 46.484375 68.546875 
Q 53.21875 62.890625 53.21875 53.421875 
Q 53.21875 48.921875 51.53125 44.890625 
Q 49.859375 40.875 45.40625 35.40625 
Q 44.1875 33.984375 37.640625 27.21875 
Q 31.109375 20.453125 19.1875 8.296875 
z
" id="DejaVuSans-32"/>
       <path d="M 31.78125 66.40625 
Q 24.171875 66.40625 20.328125 58.90625 
Q 16.5 51.421875 16.5 36.375 
Q 16.5 21.390625 20.328125 13.890625 
Q 24.171875 6.390625 31.78125 6.390625 
Q 39.453125 6.390625 43.28125 13.890625 
Q 47.125 21.390625 47.125 36.375 
Q 47.125 51.421875 43.28125 58.90625 
Q 39.453125 66.40625 31.78125 66.40625 
z
M 31.78125 74.21875 
Q 44.046875 74.21875 50.515625 64.515625 
Q 56.984375 54.828125 56.984375 36.375 
Q 56.984375 17.96875 50.515625 8.265625 
Q 44.046875 -1.421875 31.78125 -1.421875 
Q 19.53125 -1.421875 13.0625 8.265625 
Q 6.59375 17.96875 6.59375 36.375 
Q 6.59375 54.828125 13.0625 64.515625 
Q 19.53125 74.21875 31.78125 74.21875 
z
" id="DejaVuSans-30"/>
       <path d="M 12.40625 8.296875 
L 28.515625 8.296875 
L 28.515625 63.921875 
L 10.984375 60.40625 
L 10.984375 69.390625 
L 28.421875 72.90625 
L 38.28125 72.90625 
L 38.28125 8.296875 
L 54.390625 8.296875 
L 54.390625 0 
L 12.40625 0 
z
" id="DejaVuSans-31"/>
       <path d="M 8.203125 72.90625 
L 55.078125 72.90625 
L 55.078125 68.703125 
L 28.609375 0 
L 18.3125 0 
L 43.21875 64.59375 
L 8.203125 64.59375 
z
" id="DejaVuSans-37"/>
       <path d="M 4.890625 31.390625 
L 31.203125 31.390625 
L 31.203125 23.390625 
L 4.890625 23.390625 
z
" id="DejaVuSans-2d"/>
      </defs>
      <g transform="translate(77.47441 322.182437)scale(0.1 -0.1)">
       <use xlink:href="#DejaVuSans-32"/>
       <use x="63.623047" xlink:href="#DejaVuSans-30"/>
       <use x="127.246094" xlink:href="#DejaVuSans-31"/>
       <use x="190.869141" xlink:href="#DejaVuSans-37"/>
       <use x="254.492188" xlink:href="#DejaVuSans-2d"/>
       <use x="290.576172" xlink:href="#DejaVuSans-30"/>
       <use x="354.199219" xlink:href="#DejaVuSans-32"/>
      </g>
     </g>
    </g>
    <g id="xtick_2">
     <g id="line2d_2">
      <g>
       <use style="stroke:#000000;stroke-width:0.8;" x="146.614225" xlink:href="#mcb78de7882" y="307.584"/>
      </g>
     </g>
     <g id="text_2">
      <!-- 2017-04 -->
      <defs>
       <path d="M 37.796875 64.3125 
L 12.890625 25.390625 
L 37.796875 25.390625 
z
M 35.203125 72.90625 
L 47.609375 72.90625 
L 47.609375 25.390625 
L 58.015625 25.390625 
L 58.015625 17.1875 
L 47.609375 17.1875 
L 47.609375 0 
L 37.796875 0 
L 37.796875 17.1875 
L 4.890625 17.1875 
L 4.890625 26.703125 
z
" id="DejaVuSans-34"/>
      </defs>
      <g transform="translate(125.722819 322.182437)scale(0.1 -0.1)">
       <use xlink:href="#DejaVuSans-32"/>
       <use x="63.623047" xlink:href="#DejaVuSans-30"/>
       <use x="127.246094" xlink:href="#DejaVuSans-31"/>
       <use x="190.869141" xlink:href="#DejaVuSans-37"/>
       <use x="254.492188" xlink:href="#DejaVuSans-2d"/>
       <use x="290.576172" xlink:href="#DejaVuSans-30"/>
       <use x="354.199219" xlink:href="#DejaVuSans-34"/>
      </g>
     </g>
    </g>
    <g id="xtick_3">
     <g id="line2d_3">
      <g>
       <use style="stroke:#000000;stroke-width:0.8;" x="196.498173" xlink:href="#mcb78de7882" y="307.584"/>
      </g>
     </g>
     <g id="text_3">
      <!-- 2017-06 -->
      <defs>
       <path d="M 33.015625 40.375 
Q 26.375 40.375 22.484375 35.828125 
Q 18.609375 31.296875 18.609375 23.390625 
Q 18.609375 15.53125 22.484375 10.953125 
Q 26.375 6.390625 33.015625 6.390625 
Q 39.65625 6.390625 43.53125 10.953125 
Q 47.40625 15.53125 47.40625 23.390625 
Q 47.40625 31.296875 43.53125 35.828125 
Q 39.65625 40.375 33.015625 40.375 
z
M 52.59375 71.296875 
L 52.59375 62.3125 
Q 48.875 64.0625 45.09375 64.984375 
Q 41.3125 65.921875 37.59375 65.921875 
Q 27.828125 65.921875 22.671875 59.328125 
Q 17.53125 52.734375 16.796875 39.40625 
Q 19.671875 43.65625 24.015625 45.921875 
Q 28.375 48.1875 33.59375 48.1875 
Q 44.578125 48.1875 50.953125 41.515625 
Q 57.328125 34.859375 57.328125 23.390625 
Q 57.328125 12.15625 50.6875 5.359375 
Q 44.046875 -1.421875 33.015625 -1.421875 
Q 20.359375 -1.421875 13.671875 8.265625 
Q 6.984375 17.96875 6.984375 36.375 
Q 6.984375 53.65625 15.1875 63.9375 
Q 23.390625 74.21875 37.203125 74.21875 
Q 40.921875 74.21875 44.703125 73.484375 
Q 48.484375 72.75 52.59375 71.296875 
z
" id="DejaVuSans-36"/>
      </defs>
      <g transform="translate(175.606766 322.182437)scale(0.1 -0.1)">
       <use xlink:href="#DejaVuSans-32"/>
       <use x="63.623047" xlink:href="#DejaVuSans-30"/>
       <use x="127.246094" xlink:href="#DejaVuSans-31"/>
       <use x="190.869141" xlink:href="#DejaVuSans-37"/>
       <use x="254.492188" xlink:href="#DejaVuSans-2d"/>
       <use x="290.576172" xlink:href="#DejaVuSans-30"/>
       <use x="354.199219" xlink:href="#DejaVuSans-36"/>
      </g>
     </g>
    </g>
    <g id="xtick_4">
     <g id="line2d_4">
      <g>
       <use style="stroke:#000000;stroke-width:0.8;" x="246.38212" xlink:href="#mcb78de7882" y="307.584"/>
      </g>
     </g>
     <g id="text_4">
      <!-- 2017-08 -->
      <defs>
       <path d="M 31.78125 34.625 
Q 24.75 34.625 20.71875 30.859375 
Q 16.703125 27.09375 16.703125 20.515625 
Q 16.703125 13.921875 20.71875 10.15625 
Q 24.75 6.390625 31.78125 6.390625 
Q 38.8125 6.390625 42.859375 10.171875 
Q 46.921875 13.96875 46.921875 20.515625 
Q 46.921875 27.09375 42.890625 30.859375 
Q 38.875 34.625 31.78125 34.625 
z
M 21.921875 38.8125 
Q 15.578125 40.375 12.03125 44.71875 
Q 8.5 49.078125 8.5 55.328125 
Q 8.5 64.0625 14.71875 69.140625 
Q 20.953125 74.21875 31.78125 74.21875 
Q 42.671875 74.21875 48.875 69.140625 
Q 55.078125 64.0625 55.078125 55.328125 
Q 55.078125 49.078125 51.53125 44.71875 
Q 48 40.375 41.703125 38.8125 
Q 48.828125 37.15625 52.796875 32.3125 
Q 56.78125 27.484375 56.78125 20.515625 
Q 56.78125 9.90625 50.3125 4.234375 
Q 43.84375 -1.421875 31.78125 -1.421875 
Q 19.734375 -1.421875 13.25 4.234375 
Q 6.78125 9.90625 6.78125 20.515625 
Q 6.78125 27.484375 10.78125 32.3125 
Q 14.796875 37.15625 21.921875 38.8125 
z
M 18.3125 54.390625 
Q 18.3125 48.734375 21.84375 45.5625 
Q 25.390625 42.390625 31.78125 42.390625 
Q 38.140625 42.390625 41.71875 45.5625 
Q 45.3125 48.734375 45.3125 54.390625 
Q 45.3125 60.0625 41.71875 63.234375 
Q 38.140625 66.40625 31.78125 66.40625 
Q 25.390625 66.40625 21.84375 63.234375 
Q 18.3125 60.0625 18.3125 54.390625 
z
" id="DejaVuSans-38"/>
      </defs>
      <g transform="translate(225.490714 322.182437)scale(0.1 -0.1)">
       <use xlink:href="#DejaVuSans-32"/>
       <use x="63.623047" xlink:href="#DejaVuSans-30"/>
       <use x="127.246094" xlink:href="#DejaVuSans-31"/>
       <use x="190.869141" xlink:href="#DejaVuSans-37"/>
       <use x="254.492188" xlink:href="#DejaVuSans-2d"/>
       <use x="290.576172" xlink:href="#DejaVuSans-30"/>
       <use x="354.199219" xlink:href="#DejaVuSans-38"/>
      </g>
     </g>
    </g>
    <g id="xtick_5">
     <g id="line2d_5">
      <g>
       <use style="stroke:#000000;stroke-width:0.8;" x="296.266068" xlink:href="#mcb78de7882" y="307.584"/>
      </g>
     </g>
     <g id="text_5">
      <!-- 2017-10 -->
      <g transform="translate(275.374662 322.182437)scale(0.1 -0.1)">
       <use xlink:href="#DejaVuSans-32"/>
       <use x="63.623047" xlink:href="#DejaVuSans-30"/>
       <use x="127.246094" xlink:href="#DejaVuSans-31"/>
       <use x="190.869141" xlink:href="#DejaVuSans-37"/>
       <use x="254.492188" xlink:href="#DejaVuSans-2d"/>
       <use x="290.576172" xlink:href="#DejaVuSans-31"/>
       <use x="354.199219" xlink:href="#DejaVuSans-30"/>
      </g>
     </g>
    </g>
    <g id="xtick_6">
     <g id="line2d_6">
      <g>
       <use style="stroke:#000000;stroke-width:0.8;" x="346.150016" xlink:href="#mcb78de7882" y="307.584"/>
      </g>
     </g>
     <g id="text_6">
      <!-- 2017-12 -->
      <g transform="translate(325.25861 322.182437)scale(0.1 -0.1)">
       <use xlink:href="#DejaVuSans-32"/>
       <use x="63.623047" xlink:href="#DejaVuSans-30"/>
       <use x="127.246094" xlink:href="#DejaVuSans-31"/>
       <use x="190.869141" xlink:href="#DejaVuSans-37"/>
       <use x="254.492188" xlink:href="#DejaVuSans-2d"/>
       <use x="290.576172" xlink:href="#DejaVuSans-31"/>
       <use x="354.199219" xlink:href="#DejaVuSans-32"/>
      </g>
     </g>
    </g>
    <g id="xtick_7">
     <g id="line2d_7">
      <g>
       <use style="stroke:#000000;stroke-width:0.8;" x="396.851733" xlink:href="#mcb78de7882" y="307.584"/>
      </g>
     </g>
     <g id="text_7">
      <!-- 2018-02 -->
      <g transform="translate(375.960327 322.182437)scale(0.1 -0.1)">
       <use xlink:href="#DejaVuSans-32"/>
       <use x="63.623047" xlink:href="#DejaVuSans-30"/>
       <use x="127.246094" xlink:href="#DejaVuSans-31"/>
       <use x="190.869141" xlink:href="#DejaVuSans-38"/>
       <use x="254.492188" xlink:href="#DejaVuSans-2d"/>
       <use x="290.576172" xlink:href="#DejaVuSans-30"/>
       <use x="354.199219" xlink:href="#DejaVuSans-32"/>
      </g>
     </g>
    </g>
   </g>
   <g id="matplotlib.axis_2">
    <g id="ytick_1">
     <g id="line2d_8">
      <defs>
       <path d="M 0 0 
L -3.5 0 
" id="m0c694f93cb" style="stroke:#000000;stroke-width:0.8;"/>
      </defs>
      <g>
       <use style="stroke:#000000;stroke-width:0.8;" x="57.6" xlink:href="#m0c694f93cb" y="305.720067"/>
      </g>
     </g>
     <g id="text_8">
      <!-- 0 -->
      <g transform="translate(44.2375 309.519285)scale(0.1 -0.1)">
       <use xlink:href="#DejaVuSans-30"/>
      </g>
     </g>
    </g>
    <g id="ytick_2">
     <g id="line2d_9">
      <g>
       <use style="stroke:#000000;stroke-width:0.8;" x="57.6" xlink:href="#m0c694f93cb" y="272.866857"/>
      </g>
     </g>
     <g id="text_9">
      <!-- 2500 -->
      <defs>
       <path d="M 10.796875 72.90625 
L 49.515625 72.90625 
L 49.515625 64.59375 
L 19.828125 64.59375 
L 19.828125 46.734375 
Q 21.96875 47.46875 24.109375 47.828125 
Q 26.265625 48.1875 28.421875 48.1875 
Q 40.625 48.1875 47.75 41.5 
Q 54.890625 34.8125 54.890625 23.390625 
Q 54.890625 11.625 47.5625 5.09375 
Q 40.234375 -1.421875 26.90625 -1.421875 
Q 22.3125 -1.421875 17.546875 -0.640625 
Q 12.796875 0.140625 7.71875 1.703125 
L 7.71875 11.625 
Q 12.109375 9.234375 16.796875 8.0625 
Q 21.484375 6.890625 26.703125 6.890625 
Q 35.15625 6.890625 40.078125 11.328125 
Q 45.015625 15.765625 45.015625 23.390625 
Q 45.015625 31 40.078125 35.4375 
Q 35.15625 39.890625 26.703125 39.890625 
Q 22.75 39.890625 18.8125 39.015625 
Q 14.890625 38.140625 10.796875 36.28125 
z
" id="DejaVuSans-35"/>
      </defs>
      <g transform="translate(25.15 276.666075)scale(0.1 -0.1)">
       <use xlink:href="#DejaVuSans-32"/>
       <use x="63.623047" xlink:href="#DejaVuSans-35"/>
       <use x="127.246094" xlink:href="#DejaVuSans-30"/>
       <use x="190.869141" xlink:href="#DejaVuSans-30"/>
      </g>
     </g>
    </g>
    <g id="ytick_3">
     <g id="line2d_10">
      <g>
       <use style="stroke:#000000;stroke-width:0.8;" x="57.6" xlink:href="#m0c694f93cb" y="240.013646"/>
      </g>
     </g>
     <g id="text_10">
      <!-- 5000 -->
      <g transform="translate(25.15 243.812865)scale(0.1 -0.1)">
       <use xlink:href="#DejaVuSans-35"/>
       <use x="63.623047" xlink:href="#DejaVuSans-30"/>
       <use x="127.246094" xlink:href="#DejaVuSans-30"/>
       <use x="190.869141" xlink:href="#DejaVuSans-30"/>
      </g>
     </g>
    </g>
    <g id="ytick_4">
     <g id="line2d_11">
      <g>
       <use style="stroke:#000000;stroke-width:0.8;" x="57.6" xlink:href="#m0c694f93cb" y="207.160436"/>
      </g>
     </g>
     <g id="text_11">
      <!-- 7500 -->
      <g transform="translate(25.15 210.959655)scale(0.1 -0.1)">
       <use xlink:href="#DejaVuSans-37"/>
       <use x="63.623047" xlink:href="#DejaVuSans-35"/>
       <use x="127.246094" xlink:href="#DejaVuSans-30"/>
       <use x="190.869141" xlink:href="#DejaVuSans-30"/>
      </g>
     </g>
    </g>
    <g id="ytick_5">
     <g id="line2d_12">
      <g>
       <use style="stroke:#000000;stroke-width:0.8;" x="57.6" xlink:href="#m0c694f93cb" y="174.307226"/>
      </g>
     </g>
     <g id="text_12">
      <!-- 10000 -->
      <g transform="translate(18.7875 178.106445)scale(0.1 -0.1)">
       <use xlink:href="#DejaVuSans-31"/>
       <use x="63.623047" xlink:href="#DejaVuSans-30"/>
       <use x="127.246094" xlink:href="#DejaVuSans-30"/>
       <use x="190.869141" xlink:href="#DejaVuSans-30"/>
       <use x="254.492188" xlink:href="#DejaVuSans-30"/>
      </g>
     </g>
    </g>
    <g id="ytick_6">
     <g id="line2d_13">
      <g>
       <use style="stroke:#000000;stroke-width:0.8;" x="57.6" xlink:href="#m0c694f93cb" y="141.454016"/>
      </g>
     </g>
     <g id="text_13">
      <!-- 12500 -->
      <g transform="translate(18.7875 145.253235)scale(0.1 -0.1)">
       <use xlink:href="#DejaVuSans-31"/>
       <use x="63.623047" xlink:href="#DejaVuSans-32"/>
       <use x="127.246094" xlink:href="#DejaVuSans-35"/>
       <use x="190.869141" xlink:href="#DejaVuSans-30"/>
       <use x="254.492188" xlink:href="#DejaVuSans-30"/>
      </g>
     </g>
    </g>
    <g id="ytick_7">
     <g id="line2d_14">
      <g>
       <use style="stroke:#000000;stroke-width:0.8;" x="57.6" xlink:href="#m0c694f93cb" y="108.600806"/>
      </g>
     </g>
     <g id="text_14">
      <!-- 15000 -->
      <g transform="translate(18.7875 112.400025)scale(0.1 -0.1)">
       <use xlink:href="#DejaVuSans-31"/>
       <use x="63.623047" xlink:href="#DejaVuSans-35"/>
       <use x="127.246094" xlink:href="#DejaVuSans-30"/>
       <use x="190.869141" xlink:href="#DejaVuSans-30"/>
       <use x="254.492188" xlink:href="#DejaVuSans-30"/>
      </g>
     </g>
    </g>
    <g id="ytick_8">
     <g id="line2d_15">
      <g>
       <use style="stroke:#000000;stroke-width:0.8;" x="57.6" xlink:href="#m0c694f93cb" y="75.747596"/>
      </g>
     </g>
     <g id="text_15">
      <!-- 17500 -->
      <g transform="translate(18.7875 79.546815)scale(0.1 -0.1)">
       <use xlink:href="#DejaVuSans-31"/>
       <use x="63.623047" xlink:href="#DejaVuSans-37"/>
       <use x="127.246094" xlink:href="#DejaVuSans-35"/>
       <use x="190.869141" xlink:href="#DejaVuSans-30"/>
       <use x="254.492188" xlink:href="#DejaVuSans-30"/>
      </g>
     </g>
    </g>
    <g id="ytick_9">
     <g id="line2d_16">
      <g>
       <use style="stroke:#000000;stroke-width:0.8;" x="57.6" xlink:href="#m0c694f93cb" y="42.894386"/>
      </g>
     </g>
     <g id="text_16">
      <!-- 20000 -->
      <g transform="translate(18.7875 46.693605)scale(0.1 -0.1)">
       <use xlink:href="#DejaVuSans-32"/>
       <use x="63.623047" xlink:href="#DejaVuSans-30"/>
       <use x="127.246094" xlink:href="#DejaVuSans-30"/>
       <use x="190.869141" xlink:href="#DejaVuSans-30"/>
       <use x="254.492188" xlink:href="#DejaVuSans-30"/>
      </g>
     </g>
    </g>
   </g>
   <g id="line2d_17">
    <path clip-path="url(#p5ab7c8569d)" d="M 73.832727 292.413991 
L 74.650497 292.115684 
L 75.468267 291.068586 
L 77.103806 293.973204 
L 77.921575 293.811435 
L 78.739345 293.764783 
L 79.557115 293.942454 
L 80.374884 293.826547 
L 81.192654 295.488 
L 82.010424 295.108874 
L 82.828193 294.867206 
L 83.645963 294.966948 
L 85.281502 294.789015 
L 86.099272 293.814195 
L 86.917041 294.054549 
L 87.734811 293.879638 
L 88.552581 293.948104 
L 89.37035 293.604066 
L 90.18812 293.580674 
L 91.00589 293.715241 
L 91.823659 294.083854 
L 92.641429 293.979249 
L 93.459199 293.698026 
L 95.094738 293.648483 
L 95.912507 293.735084 
L 96.730277 293.630217 
L 97.548047 293.052 
L 100.001356 292.355512 
L 100.819125 292.142755 
L 101.636895 292.433309 
L 102.454665 292.263523 
L 103.272434 291.889128 
L 104.090204 291.916462 
L 104.907973 292.762761 
L 106.543513 292.415831 
L 107.361282 292.569189 
L 108.996822 292.462088 
L 109.814591 292.427264 
L 111.450131 291.849967 
L 113.08567 291.898064 
L 114.721209 290.941116 
L 115.538979 290.870284 
L 116.356748 290.106776 
L 117.174518 290.211512 
L 117.992288 290.578679 
L 118.810057 290.225836 
L 119.627827 290.020963 
L 120.445597 290.066038 
L 122.081136 289.193588 
L 122.898905 288.82918 
L 123.716675 289.162049 
L 125.352214 288.919066 
L 126.169984 289.516206 
L 126.987754 290.606933 
L 127.805523 290.070243 
L 128.623293 291.041647 
L 130.258832 289.600705 
L 131.076602 289.392547 
L 132.712141 289.197267 
L 133.529911 290.310334 
L 135.16545 292.980906 
L 135.98322 292.342634 
L 136.800989 292.106222 
L 137.618759 291.075551 
L 138.436529 292.085196 
L 139.254298 292.189143 
L 140.072068 293.511025 
L 140.889837 293.156736 
L 141.707607 293.104434 
L 142.525377 292.054182 
L 143.343146 292.000697 
L 144.978686 292.135921 
L 145.796455 291.654819 
L 146.614225 291.475703 
L 147.431995 291.553631 
L 148.249764 290.676319 
L 149.885303 290.810229 
L 150.703073 290.070768 
L 152.338612 290.160392 
L 153.156382 289.86905 
L 155.609691 289.790596 
L 156.42746 290.306523 
L 158.880769 290.445821 
L 159.698539 290.25882 
L 160.516309 289.916621 
L 161.334078 289.898223 
L 162.151848 289.501225 
L 162.969618 289.377434 
L 163.787387 289.514235 
L 165.422926 289.246416 
L 167.058466 288.794224 
L 167.876235 288.222053 
L 169.511775 288.202735 
L 170.329544 287.976573 
L 171.147314 287.44238 
L 172.782853 285.965826 
L 173.600623 285.518891 
L 174.418392 285.812335 
L 175.236162 285.245683 
L 176.053932 285.29838 
L 176.871701 284.042993 
L 177.689471 283.113378 
L 179.32501 281.691886 
L 180.14278 283.491453 
L 180.96055 282.36945 
L 181.778319 282.276016 
L 182.596089 283.307869 
L 183.413858 283.379752 
L 185.867167 279.989432 
L 186.684937 279.253652 
L 187.502707 279.206869 
L 188.320476 278.123764 
L 189.956016 273.914348 
L 190.773785 275.593279 
L 191.591555 275.760304 
L 192.409324 278.885565 
L 193.227094 277.087706 
L 194.044864 275.598929 
L 194.862633 276.763116 
L 195.680403 275.521264 
L 196.498173 274.001869 
L 197.315942 273.012199 
L 198.133712 272.328852 
L 198.951482 272.46907 
L 200.587021 267.863444 
L 201.40479 270.461607 
L 202.22256 268.845624 
L 203.04033 268.631158 
L 203.858099 267.610474 
L 204.675869 266.897823 
L 205.493639 270.671474 
L 206.311408 270.198913 
L 207.129178 273.523921 
L 207.946948 273.853636 
L 208.764717 273.068181 
L 209.582487 271.15849 
L 210.400256 272.643718 
L 211.218026 271.579011 
L 212.035796 269.712948 
L 212.853565 270.803149 
L 213.671335 270.061455 
L 214.489105 270.435062 
L 215.306874 272.10913 
L 216.124644 272.84018 
L 216.942414 273.902127 
L 217.760183 272.012673 
L 218.577953 272.079694 
L 219.395722 272.320311 
L 220.213492 273.320362 
L 221.031262 274.017902 
L 221.849031 272.809429 
L 223.484571 271.603716 
L 224.30234 271.514618 
L 225.12011 271.547603 
L 225.93788 272.84767 
L 226.755649 272.208872 
L 227.573419 272.836894 
L 228.391188 275.18695 
L 229.208958 275.416528 
L 230.026728 274.33868 
L 230.844497 274.969593 
L 231.662267 276.633543 
L 232.480037 279.825035 
L 233.297806 280.519946 
L 234.115576 276.467568 
L 234.933346 275.446359 
L 235.751115 275.952299 
L 236.568885 267.938481 
L 237.386654 270.632838 
L 238.204424 268.49462 
L 239.022194 269.594414 
L 239.839963 269.450386 
L 240.657733 272.015038 
L 241.475503 272.538456 
L 242.293272 270.681067 
L 243.111042 269.226589 
L 243.928812 270.494066 
L 244.746581 269.681804 
L 245.564351 268.191056 
L 246.38212 269.83122 
L 247.19989 270.192474 
L 248.01766 269.011598 
L 248.835429 268.201701 
L 249.653199 262.831909 
L 250.470969 263.368994 
L 251.288738 261.20331 
L 252.106508 260.876618 
L 252.924278 261.788886 
L 253.742047 260.86847 
L 255.377586 255.059103 
L 256.195356 252.44701 
L 257.013126 249.130675 
L 257.830895 251.109227 
L 258.648665 248.176486 
L 259.466435 249.521365 
L 260.284204 251.840802 
L 261.101974 251.846716 
L 261.919744 252.3838 
L 262.737513 253.318934 
L 263.555283 252.037921 
L 264.373052 251.734095 
L 265.190822 249.208077 
L 266.008592 248.476896 
L 266.826361 248.773889 
L 267.644131 248.717382 
L 268.461901 248.161374 
L 269.27967 245.548492 
L 270.09744 245.622347 
L 270.91521 243.505811 
L 271.732979 241.042609 
L 272.550749 245.271474 
L 273.368518 245.187896 
L 274.186288 249.514795 
L 275.004058 247.944149 
L 275.821827 245.193941 
L 276.639597 245.073041 
L 277.457367 249.05485 
L 278.275136 249.097953 
L 279.092906 250.182109 
L 279.910676 250.430611 
L 280.728445 250.887271 
L 281.546215 254.924536 
L 282.363984 263.302761 
L 283.181754 257.097184 
L 284.817293 257.583675 
L 285.635063 251.819776 
L 286.452833 254.616241 
L 287.270602 254.804687 
L 288.088372 258.187385 
L 288.906142 258.251383 
L 289.723911 256.05692 
L 290.541681 257.567511 
L 291.35945 254.232516 
L 292.17722 254.62636 
L 292.99499 250.536004 
L 294.630529 250.988984 
L 295.448299 248.869689 
L 296.266068 248.197775 
L 297.083838 248.010381 
L 297.901608 249.004519 
L 298.719377 250.270024 
L 299.537147 249.198221 
L 301.172686 247.592225 
L 302.808225 243.105791 
L 303.625995 243.308298 
L 304.443765 242.352664 
L 305.261534 234.165775 
L 306.079304 231.424503 
L 306.897074 229.483667 
L 307.714843 231.081516 
L 308.532613 230.213928 
L 309.350382 232.164226 
L 310.168152 232.364762 
L 310.985922 230.831963 
L 311.803691 227.170801 
L 312.621461 226.695481 
L 313.439231 227.279742 
L 314.257 228.565354 
L 315.07477 233.135498 
L 315.89254 230.343238 
L 316.710309 228.317904 
L 317.528079 229.870021 
L 318.345848 230.411442 
L 319.163618 225.067144 
L 319.981388 225.29554 
L 322.434697 213.33684 
L 323.252466 211.801675 
L 324.070236 208.621353 
L 324.888005 208.833059 
L 325.705775 214.155805 
L 326.523545 212.019032 
L 327.341314 207.813295 
L 328.159084 211.786168 
L 328.976854 219.142922 
L 329.794623 222.205498 
L 330.612393 228.575867 
L 331.430163 219.970954 
L 332.247932 218.869321 
L 333.065702 209.867541 
L 333.883471 202.600937 
L 334.701241 204.860843 
L 335.519011 203.598754 
L 336.33678 200.371912 
L 337.15455 197.61763 
L 337.97232 199.33835 
L 338.790089 197.768492 
L 339.607859 200.734349 
L 340.425629 197.972182 
L 342.878937 178.143561 
L 343.696707 176.0311 
L 344.514477 176.611156 
L 345.332246 174.99491 
L 346.150016 163.262634 
L 346.967786 162.848027 
L 348.603325 153.109415 
L 349.421095 152.269293 
L 350.238864 126.689784 
L 351.056634 87.574883 
L 351.874403 98.087779 
L 352.692173 113.758892 
L 353.509943 112.661463 
L 354.327712 89.283119 
L 355.145482 86.917556 
L 355.963252 92.174201 
L 356.781021 90.137434 
L 357.598791 76.122123 
L 358.416561 53.568 
L 359.23433 56.653311 
L 360.0521 56.816657 
L 361.687639 89.322806 
L 362.505409 100.715905 
L 363.323178 121.613437 
L 364.140948 113.607636 
L 364.958718 119.667476 
L 365.776487 122.907985 
L 366.594257 98.555083 
L 367.412027 103.805158 
L 368.229796 115.564767 
L 369.047566 117.274054 
L 369.865335 139.614237 
L 370.683105 123.319044 
L 371.500875 129.056398 
L 372.318644 112.819947 
L 373.136414 106.55576 
L 373.954184 106.712798 
L 374.771953 83.264411 
L 375.589723 80.351382 
L 377.225262 108.600938 
L 378.043032 116.439451 
L 378.860801 110.046085 
L 379.678571 131.679135 
L 380.496341 124.614644 
L 381.31411 119.143007 
L 382.13188 126.367954 
L 382.94965 126.906089 
L 383.767419 156.088939 
L 384.585189 158.651358 
L 385.402959 157.912555 
L 386.220728 153.911954 
L 387.038498 137.827153 
L 387.856267 153.821673 
L 388.674037 163.676059 
L 389.491807 163.113218 
L 390.309576 155.896813 
L 391.127346 159.121947 
L 391.945116 159.94446 
L 392.762885 155.297833 
L 393.580655 152.156541 
L 394.398425 159.028907 
L 395.216194 174.688324 
L 396.033964 172.349175 
L 396.851733 187.461783 
L 397.669503 189.566491 
L 398.487273 186.265795 
L 398.487273 186.265795 
" style="fill:none;stroke:#1f77b4;stroke-linecap:square;stroke-width:1.5;"/>
   </g>
   <g id="patch_3">
    <path d="M 57.6 307.584 
L 57.6 41.472 
" style="fill:none;stroke:#000000;stroke-linecap:square;stroke-linejoin:miter;stroke-width:0.8;"/>
   </g>
   <g id="patch_4">
    <path d="M 414.72 307.584 
L 414.72 41.472 
" style="fill:none;stroke:#000000;stroke-linecap:square;stroke-linejoin:miter;stroke-width:0.8;"/>
   </g>
   <g id="patch_5">
    <path d="M 57.6 307.584 
L 414.72 307.584 
" style="fill:none;stroke:#000000;stroke-linecap:square;stroke-linejoin:miter;stroke-width:0.8;"/>
   </g>
   <g id="patch_6">
    <path d="M 57.6 41.472 
L 414.72 41.472 
" style="fill:none;stroke:#000000;stroke-linecap:square;stroke-linejoin:miter;stroke-width:0.8;"/>
   </g>
   <g id="legend_1">
    <g id="patch_7">
     <path d="M 64.6 54.472 
L 68.6 54.472 
Q 70.6 54.472 70.6 52.472 
L 70.6 48.472 
Q 70.6 46.472 68.6 46.472 
L 64.6 46.472 
Q 62.6 46.472 62.6 48.472 
L 62.6 52.472 
Q 62.6 54.472 64.6 54.472 
z
" style="fill:#ffffff;opacity:0.8;stroke:#cccccc;stroke-linejoin:miter;"/>
    </g>
   </g>
  </g>
 </g>
 <defs>
  <clipPath id="p5ab7c8569d">
   <rect height="266.112" width="357.12" x="57.6" y="41.472"/>
  </clipPath>
 </defs>
</svg>
